<svg xmlns="http://www.w3.org/2000/svg" xmlns:xlink="http://www.w3.org/1999/xlink" viewBox="0 0 24 24" fill="#F93D31">
  <path d="M6.7558594 3.5078125C3.9068594 5.2678125 2 8.411 2 12C2 17.514 6.486 22 12 22C17.514 22 22 17.514 22 12C22 8.411 20.093141 5.2678125 17.244141 3.5078125L16.09375 5.1523438C18.42575 6.5513437 20 9.088 20 12C20 16.411 16.411 20 12 20C7.589 20 4 16.411 4 12C4 9.088 5.57425 6.5513438 7.90625 5.1523438L6.7558594 3.5078125 z M 11 4L11 11L8 11L12 15L16 11L13 11L13 4L11 4 z" fill="#F93D31" />
</svg>